<svg xmlns="http://www.w3.org/2000/svg" width="1200" height="180" viewBox="0 0 1200 180" font-family="Inter,Segoe UI,Arial,sans-serif" role="img" aria-label="Membrete: Asistencia Digital, 1ª Compañía de Bomberos de Coquimbo">
  <title>Membrete de Asistencia Digital — 1ª Compañía de Bomberos de Coquimbo</title>
  <g fill="none" stroke="#1A2A6C" stroke-width="4" stroke-linecap="round" stroke-linejoin="round">
    <path d="M64 118c0-30 24-54 54-54s54 24 54 54"/>
    <path d="M74 118h88"/>
    <path d="M100 64c0-14 8-24 18-24s18 10 18 24"/>
    <path d="M118 40v-10h20v10"/>
    <path d="M86 118c0-20 14-36 32-36s32 16 32 36"/>
    <path d="M104 118l12 12 24-30"/>
  </g>

  <line x1="222" y1="40" x2="222" y2="140" stroke="#1A2A6C" stroke-width="3" opacity="0.35"/>

  <text x="252" y="72" font-size="34" font-weight="700" fill="#1A2A6C">Asistencia Digital</text>
  <text x="254" y="104" font-size="19" fill="#1A2A6C">1ª Compañía de Bomberos de Coquimbo</text>
  <text x="254" y="130" font-size="15" fill="#1A2A6C" opacity="0.75">Registro y control de asistencia de voluntarios · edición histórica</text>

  <rect x="1030" y="56" width="106" height="68" rx="10" fill="none" stroke="#1A2A6C" stroke-width="3"/>
  <text x="1083" y="84" font-size="13" font-weight="700" fill="#1A2A6C" text-anchor="middle">DEMO</text>
  <text x="1083" y="106" font-size="11" fill="#1A2A6C" text-anchor="middle" opacity="0.75">no oficial</text>
</svg>
